<?xml version="1.0" ?>
<svg xmlns="http://www.w3.org/2000/svg" viewBox="0 0 114.5 94.1" xmlns:xlink="http://www.w3.org/1999/xlink" >
	<defs>
		<style>.cls-1{fill:none;}.cls-2{fill:#449ad5;}.cls-3{fill:#515050;}.cls-4{opacity:0.21;}.cls-5{clip-path:url(#clip-path);}.cls-6{clip-path:url(#clip-path-2);}.cls-7{fill:url(#linear-gradient);}.cls-8{opacity:0.25;}.cls-9{clip-path:url(#clip-path-3);}.cls-10{clip-path:url(#clip-path-4);}.cls-11{fill:url(#linear-gradient-2);}</style>
		<clipPath id="clip-path">
			<rect class="cls-1" x="99" y="63.96" width="45" height="34"/>
		</clipPath>
		<clipPath id="clip-path-2">
			<path class="cls-1" d="M 144.18,88.55 A 15.73,15.73 0.0 0,1 143.18,89.77 L 142.78,90.27 C 142.64,90.46 142.48,90.64 142.33,90.82 A 68.25,68.25 0.0 0,1 135.56,98.0 L 135.05,98.46 C 134.99,98.52 134.93,98.56 134.88,98.62 A 70.0,70.0 0.0 0,1 107.81,78.1 C 106.99,77.1 106.2,76.03 105.41,74.93 A 69.56,69.56 0.0 0,1 99.51,65.0 L 99.88,65.0 C 106.39,72.36 121.88,87.68 144.13,88.53"/>
		</clipPath>
		<linearGradient id="linear-gradient" x1="-381.57" y1="124.32" x2="-380.84" y2="124.32" gradientTransform="matrix(-18.75, 27.93, 27.93, 18.75, -10491.61, 8387.84)" gradientUnits="userSpaceOnUse">
			<stop offset="0" stop-color="#fdfdfe"/>
			<stop offset="0.91" stop-color="#fdfdfe"/>
			<stop offset="1" stop-color="#fdfdfe"/>
		</linearGradient>
		<clipPath id="clip-path-3">
			<rect class="cls-1" x="93" y="29.96" width="64" height="26"/>
		</clipPath>
		<clipPath id="clip-path-4">
			<path class="cls-1" d="M 157.0,31.77 C 154.66,32.43 125.52,32.22 96.18,56.06 A 71.42,71.42 0.0 0,1 93.0,41.85 A 95.58,95.58 0.0 0,1 103.9,36.63 C 105.98,35.8 108.07,35.03 110.21,34.35 L 111.32,34.0 C 111.98,33.79 112.64,33.6 113.32,33.41 A 92.6,92.6 0.0 0,1 122.61,31.26 L 123.14,31.16 Q 123.86,31.02 124.58,30.92 A 95.08,95.08 0.0 0,1 138.27,29.75 C 140.49,29.75 142.73,29.75 144.96,29.9 A 93.0,93.0 0.0 0,1 156.96,31.37 A 0.72,0.72 0.0 0,0 157.04,31.77"/>
		</clipPath>
		<linearGradient id="linear-gradient-2" x1="-393.26" y1="109.57" x2="-392.52" y2="109.57" gradientTransform="matrix(-69.19, 103.07, 103.07, 69.19, -38328.43, 32920.2)" xlink:href="#linear-gradient"/>
	</defs>
	<g transform="translate(-92.6 -7)">
		<g id="Logo">
			<path class="cls-2" d="M 157.89,41.37 C 157.89,41.01 157.89,40.66 157.81,40.31 A 68.63,68.63 0.0 0,0 156.9,33.17 C 156.83,32.84 156.78,32.51 156.72,32.17 L 156.63,31.75 A 2.83,2.83 0.0 0,0 156.55,31.35 A 93.0,93.0 0.0 0,0 144.55,29.88 C 142.32,29.75 140.08,29.7 137.86,29.73 A 95.0,95.0 0.0 0,0 124.18,31.0 Q 123.46,31.11 122.74,31.24 L 122.21,31.34 A 89.92,89.92 0.0 0,0 112.92,33.49 L 110.92,34.08 L 109.81,34.43 C 107.67,35.11 105.58,35.88 103.5,36.71 A 95.58,95.58 0.0 0,0 92.6,41.93 A 71.63,71.63 0.0 0,0 95.81,56.1 A 69.06,69.06 0.0 0,0 99.22,64.48 L 99.22,64.48 A 69.56,69.56 0.0 0,0 105.12,74.42 C 105.9,75.51 106.7,76.57 107.52,77.58 A 69.88,69.88 0.0 0,0 134.59,98.11 A 1.29,1.29 0.0 0,1 134.76,97.95 L 135.18,97.56 A 69.2,69.2 0.0 0,0 142.0,90.39 C 142.18,90.18 142.36,89.97 142.53,89.75 L 142.93,89.25 C 143.24,88.84 143.57,88.44 143.93,88.03 A 70.31,70.31 0.0 0,0 151.15,76.22 C 151.31,75.9 151.46,75.58 151.61,75.22 A 69.73,69.73 0.0 0,0 154.71,67.31 C 154.81,66.99 154.91,66.68 155.02,66.31 L 155.08,66.13 L 155.08,66.13 A 69.35,69.35 0.0 0,0 157.02,58.13 A 2.51,2.51 0.0 0,1 157.1,57.68 C 157.16,57.33 157.22,56.98 157.27,56.62 A 67.47,67.47 0.0 0,0 158.04,48.98 L 158.04,47.84 C 158.12,45.54 158.04,43.35 157.93,41.27 M 123.42,57.77 A 3.73,3.73 0.0 0,1 123.11,57.03 A 6.0,6.0 0.0 0,1 122.94,56.3 A 5.0,5.0 0.0 0,1 123.01,54.3 A 4.2,4.2 0.0 0,1 123.33,53.4 A 5.1,5.1 0.0 0,1 132.33,52.79 A 4.65,4.65 0.0 0,1 132.79,53.71 A 5.68,5.68 0.0 0,1 133.06,54.71 A 5.12,5.12 0.0 0,1 132.48,58.03 A 5.41,5.41 0.0 0,1 131.0,59.65 L 132.36,63.35 L 133.72,67.0 L 126.16,67.0 L 126.28,64.12 L 126.39,60.43 A 5.06,5.06 0.0 0,1 123.39,57.86 L 123.42,57.77 M 189.0,48.28 C 187.49,48.89 185.94,49.4 184.42,50.01 C 182.59,50.74 180.7,51.26 178.86,51.9 C 177.02,52.54 175.1,53.03 173.22,53.53 L 170.39,54.3 L 167.53,54.92 C 165.63,55.36 163.68,55.81 161.76,56.08 L 161.19,56.17 A 73.09,73.09 0.0 0,0 161.6,47.17 A 120.81,120.81 0.0 0,0 183.65,38.66 A 14.49,14.49 0.0 0,0 189.0,48.28 M 205.55,42.0 A 9.0,9.0 0.0 0,1 195.31,45.63 A 8.52,8.52 0.0 0,1 193.0,44.5 A 9.07,9.07 0.0 1,1 205.55,42.0"/>
			<path class="cls-3" d="M 138.33,10.37 A 49.25,49.25 0.0 0,1 187.57,18.14 L 187.34,18.26 L 179.53,22.0 A 41.42,41.42 0.0 0,0 148.09,15.72 Q 146.59,16.02 145.09,16.44 A 33.05,33.05 0.0 0,0 138.31,10.34 M 193.2,24.0 L 192.48,24.48 C 191.79,24.93 191.1,25.43 190.38,25.89 C 189.66,26.35 188.91,26.8 188.16,27.26 C 187.67,27.57 187.16,27.88 186.67,28.17 C 185.67,28.78 184.55,29.39 183.46,30.02 C 182.64,30.49 181.8,30.89 180.96,31.35 C 180.12,31.81 179.27,32.25 178.39,32.66 C 174.93,34.39 171.23,35.96 167.39,37.43 C 165.33,38.18 163.22,38.91 161.1,39.58 C 160.81,37.15 160.43,34.93 160.02,32.96 L 159.79,31.85 C 161.66,31.51 163.52,31.13 165.36,30.73 C 169.13,29.83 172.81,28.82 176.36,27.63 C 177.24,27.35 178.09,27.0 178.96,26.72 C 179.83,26.44 180.67,26.11 181.5,25.77 L 183.38,25.0 C 184.38,24.59 185.38,24.18 186.38,23.74 C 187.16,23.38 187.92,23.03 188.68,22.74 C 189.44,22.45 190.15,22.01 190.9,21.65 L 191.01,21.59 C 191.46,22.04 191.9,22.5 192.33,22.96 C 192.76,23.42 192.97,23.66 193.27,24.04 M 204.27,48.04 C 203.54,48.42 202.81,48.83 202.1,49.22 C 201.39,49.61 200.71,49.96 199.99,50.29 L 195.61,52.38 L 186.83,56.54 L 184.64,57.54 C 183.93,57.88 183.15,58.15 182.41,58.45 C 180.92,59.04 179.41,59.7 177.92,60.23 L 173.34,61.85 C 171.83,62.39 170.26,62.78 168.7,63.19 L 164.0,64.47 C 162.51,64.85 161.07,65.3 159.56,65.56 C 159.21,67.02 158.82,68.49 158.36,69.98 Q 157.52,72.72 156.53,75.27 C 156.63,74.99 175.6,78.15 194.65,61.73 C 195.17,65.11 189.39,73.27 187.28,75.88 C 177.67,87.73 163.28,92.35 148.41,90.56 A 76.91,76.91 0.0 0,1 141.41,99.25 L 141.79,99.37 L 143.66,99.88 C 144.97,100.19 146.32,100.36 147.66,100.59 A 25.6,25.6 0.0 0,0 151.66,101.01 A 28.14,28.14 0.0 0,0 155.66,101.12 L 159.74,100.94 L 163.64,100.36 L 164.64,100.21 A 1.26,1.26 0.0 0,0 165.19,100.11 L 165.67,99.99 L 167.67,99.5 C 168.32,99.33 168.98,99.2 169.67,98.98 L 171.57,98.32 L 173.47,97.65 L 175.31,96.83 L 177.15,96.0 C 177.75,95.69 178.33,95.36 178.92,95.0 L 180.69,94.0 C 181.27,93.67 181.81,93.25 182.39,92.89 A 31.23,31.23 0.0 0,0 185.65,90.55 A 30.79,30.79 0.0 0,0 188.74,87.95 A 34.72,34.72 0.0 0,0 191.6,85.12 L 192.93,83.67 L 193.26,83.3 L 193.62,82.88 L 194.24,82.09 C 195.0,81.0 195.9,80.0 196.6,78.85 L 197.7,77.17 C 198.05,76.6 198.38,75.99 198.7,75.41 C 199.35,74.29 199.94,73.14 200.48,71.96 A 32.13,32.13 0.0 0,0 202.0,68.2 L 202.69,66.32 C 202.89,65.69 203.06,65.03 203.25,64.32 L 203.78,62.39 L 204.18,60.39 C 204.47,59.12 204.65,57.73 204.82,56.39 C 204.99,55.05 205.03,53.78 205.14,52.39 C 205.25,51.0 205.14,49.71 205.14,48.39 L 205.14,47.46 L 204.27,48.04 M 144.43,27.13 C 142.2,27.0 140.0,27.0 137.73,27.0 A 21.22,21.22 0.0 0,0 134.2,21.0 A 11.13,11.13 0.0 0,0 133.2,19.93 A 15.24,15.24 0.0 0,0 127.2,16.07 A 12.18,12.18 0.0 0,0 125.62,15.67 A 11.47,11.47 0.0 0,0 121.49,15.59 C 114.79,16.69 110.08,23.45 109.72,31.59 C 107.58,32.27 105.49,33.04 103.41,33.87 C 102.92,21.66 110.07,11.04 120.48,9.33 A 18.53,18.53 0.0 0,1 132.12,11.33 A 16.5,16.5 0.0 0,1 133.69,12.25 A 22.86,22.86 0.0 0,1 138.91,16.79 C 139.27,17.21 139.63,17.66 139.97,18.11 A 28.23,28.23 0.0 0,1 144.45,27.11"/>
			<g class="cls-4">
				<g class="cls-5">
					<g class="cls-6">
						<polygon class="cls-7" points="159.69 74.91 130.32 118.81 84.05 87.65 113.42 43.75 159.69 74.91"/>
					</g>
				</g>
			</g>
			<g class="cls-8">
				<g class="cls-9">
					<g class="cls-10">
						<polygon class="cls-11" points="169.1 37.9 137.07 85.78 80.79 47.88 112.83 0 169.1 37.9"/>
					</g>
				</g>
			</g>
		</g>
	</g>
</svg>