<?xml version="1.0" encoding="UTF-8"?>
<svg id="Layer_1" data-name="Layer 1" xmlns="http://www.w3.org/2000/svg" viewBox="0 0 131.09 131.19">
  <defs>
    <style>
      .cls-1 {
        fill: #14e778;
      }
    </style>
  </defs>
  <path class="cls-1" d="m102.24,65.57c-.09,13.41-3.32,25.89-11.94,36.47-2.45,3-5.69,5.38-8.7,7.9-1.5,1.26-3.36.87-4.47-.56-1.02-1.32-.67-3.17.76-4.49,2.73-2.54,5.77-4.84,8.1-7.73,5.32-6.56,7.9-14.35,9.22-22.62,1.3-8.03.91-16.02-1.19-23.81-2.73-10.14-7.42-19.08-16.76-24.85-2.87-1.78-3.08-4.45-.43-5.86.76-.41,2.13-.39,2.91.02,6.79,3.58,11.63,9.2,15.26,15.8,5.1,9.25,7.36,19.23,7.25,29.74h0Z"/>
  <path class="cls-1" d="m105.24,109.71c-6.86,4.55-14.91,6.99-23.14,7.01-13.37,0-25.98-6.46-34.75-17.75l-.11-.11c-6.66-7.89-10.64-19.51-10.96-31.78v-2.83c.33-12.3,4.27-23.89,11.07-31.9,8.77-11.28,21.37-17.75,34.75-17.75,8.23.03,16.27,2.47,23.13,7.01,24.33,21.92,26.29,59.41,4.38,83.74-1.38,1.53-2.84,3-4.38,4.38m-42.54,15.13c-31.7-1.42-56.64-27.59-56.52-59.32C6.17,32.88,32.82,6.14,65.57,6.14h.22c5.15.03,10.27.73,15.23,2.09-14.9.33-28.83,7.69-38.36,20.06-7.57,8.98-12.17,21.92-12.39,35.73v2.96c.33,13.7,4.82,26.65,12.39,35.62,9.64,12.5,23.58,19.84,38.47,20.16-5.98,1.73-12.2,2.43-18.41,2.09M109.19,16.66C97.25,5.92,81.76-.01,65.7,0h-.22C29.26.05-.05,29.46,0,65.68c.05,34.95,27.5,63.71,62.41,65.4.98,0,2.08.11,3.08.11,36.23,0,65.6-29.37,65.6-65.61,0-18.68-7.97-36.48-21.9-48.93"/>
</svg>